<svg width="31" height="31" viewBox="0 0 31 31" fill="none" xmlns="http://www.w3.org/2000/svg">
<g id="mdi:github">
<path id="Vector" d="M15.4999 2.58331C13.8037 2.58331 12.124 2.91741 10.5569 3.56654C8.9898 4.21566 7.56588 5.16709 6.36646 6.36652C3.94411 8.78886 2.58325 12.0743 2.58325 15.5C2.58325 21.2091 6.29034 26.0529 11.4183 27.7708C12.0641 27.8741 12.2708 27.4737 12.2708 27.125V24.9421C8.69284 25.7171 7.93075 23.2112 7.93075 23.2112C7.33659 21.7129 6.497 21.3125 6.497 21.3125C5.32159 20.5116 6.58742 20.5375 6.58742 20.5375C7.87909 20.6279 8.56367 21.8679 8.56367 21.8679C9.68742 23.8312 11.5862 23.25 12.3224 22.94C12.4387 22.1004 12.7745 21.5321 13.1362 21.2091C10.2687 20.8862 7.25909 19.7754 7.25909 14.8541C7.25909 13.4204 7.74992 12.2708 8.5895 11.3537C8.46034 11.0308 8.00825 9.68748 8.71867 7.94373C8.71867 7.94373 9.80367 7.59498 12.2708 9.26123C13.2912 8.97706 14.402 8.83498 15.4999 8.83498C16.5978 8.83498 17.7087 8.97706 18.7291 9.26123C21.1962 7.59498 22.2812 7.94373 22.2812 7.94373C22.9916 9.68748 22.5395 11.0308 22.4103 11.3537C23.2499 12.2708 23.7408 13.4204 23.7408 14.8541C23.7408 19.7883 20.7183 20.8733 17.8378 21.1962C18.3028 21.5966 18.7291 22.3846 18.7291 23.5858V27.125C18.7291 27.4737 18.9358 27.8871 19.5945 27.7708C24.7224 26.04 28.4166 21.2091 28.4166 15.5C28.4166 13.8037 28.0825 12.1241 27.4334 10.557C26.7842 8.98986 25.8328 7.56594 24.6334 6.36652C23.434 5.16709 22.01 4.21566 20.4429 3.56654C18.8758 2.91741 17.1962 2.58331 15.4999 2.58331Z" fill="#333333"/>
</g>
</svg>
